<svg width="1200" height="675" viewBox="0 0 1200 675" fill="none" xmlns="http://www.w3.org/2000/svg">
<path d="M616.293 348.073C616.293 295.706 573.841 253.255 521.474 253.255C469.107 253.255 426.655 295.706 426.655 348.073C426.655 400.441 469.107 442.892 521.474 442.892C573.841 442.892 616.293 400.441 616.293 348.073ZM668.606 348.073C668.606 429.333 602.733 495.206 521.474 495.206C440.214 495.206 374.341 429.333 374.341 348.073C374.341 266.814 440.214 200.941 521.474 200.941C602.733 200.941 668.606 266.814 668.606 348.073Z" fill="black"/>
<path d="M936.715 348.073C936.715 295.706 894.264 253.255 841.896 253.255C789.529 253.255 747.078 295.706 747.078 348.073C747.078 400.441 789.529 442.892 841.896 442.892C894.264 442.892 936.715 400.441 936.715 348.073ZM989.029 348.073C989.029 429.333 923.156 495.206 841.896 495.206C760.637 495.206 694.764 429.333 694.764 348.073C694.764 266.814 760.637 200.941 841.896 200.941C923.156 200.941 989.029 266.814 989.029 348.073Z" fill="black"/>
<path d="M694.764 439.623C707.974 460.78 726.283 478.881 747.078 492.622V632.53H694.764V439.623Z" fill="black"/>
<rect x="291.947" y="200.941" width="52.3139" height="294.266" fill="black"/>
<rect x="465.236" y="122.47" width="52.3139" height="294.266" transform="rotate(90 465.236 122.47)" fill="black"/>
</svg>
